<mxfile host="app.diagrams.net" modified="2021-07-01T12:42:21.769Z" agent="5.0 (Windows)" etag="xQBzK4zLnOaRFcDQI5GV" version="14.8.0" type="github">
  <diagram id="QUo4bnuWlo8lVpNpJ9vi" name="Page-1">
    <mxGraphModel dx="896" dy="544" grid="1" gridSize="10" guides="1" tooltips="1" connect="1" arrows="1" fold="1" page="1" pageScale="1" pageWidth="827" pageHeight="1169" math="0" shadow="0">
      <root>
        <mxCell id="0" />
        <mxCell id="1" parent="0" />
        <mxCell id="1ejtZfx5096fhbFErKvj-1" value="" style="rounded=1;whiteSpace=wrap;html=1;strokeColor=#007FFF;" vertex="1" parent="1">
          <mxGeometry x="120" y="100" width="120" height="60" as="geometry" />
        </mxCell>
        <mxCell id="1ejtZfx5096fhbFErKvj-3" value="&lt;font style=&quot;font-size: 16px&quot;&gt;运动参数&lt;/font&gt;" style="rounded=1;whiteSpace=wrap;html=1;strokeColor=#007FFF;" vertex="1" parent="1">
          <mxGeometry x="320" y="100" width="120" height="60" as="geometry" />
        </mxCell>
        <mxCell id="1ejtZfx5096fhbFErKvj-4" value="&lt;font style=&quot;font-size: 16px&quot;&gt;位置&lt;/font&gt;" style="rounded=1;whiteSpace=wrap;html=1;strokeColor=#007FFF;" vertex="1" parent="1">
          <mxGeometry x="520" y="100" width="120" height="60" as="geometry" />
        </mxCell>
        <mxCell id="1ejtZfx5096fhbFErKvj-5" value="" style="rounded=1;whiteSpace=wrap;html=1;strokeColor=#007FFF;" vertex="1" parent="1">
          <mxGeometry x="120" y="200" width="520" height="90" as="geometry" />
        </mxCell>
        <mxCell id="1ejtZfx5096fhbFErKvj-6" value="&lt;font style=&quot;font-size: 16px&quot;&gt;采样速度&lt;/font&gt;" style="rounded=1;whiteSpace=wrap;html=1;strokeColor=#007FFF;" vertex="1" parent="1">
          <mxGeometry x="140" y="210" width="120" height="60" as="geometry" />
        </mxCell>
        <mxCell id="1ejtZfx5096fhbFErKvj-7" value="&lt;font style=&quot;font-size: 16px&quot;&gt;采样轨迹&lt;/font&gt;" style="rounded=1;whiteSpace=wrap;html=1;strokeColor=#007FFF;" vertex="1" parent="1">
          <mxGeometry x="500" y="210" width="120" height="60" as="geometry" />
        </mxCell>
        <mxCell id="1ejtZfx5096fhbFErKvj-8" value="&lt;font style=&quot;font-size: 16px&quot;&gt;采样&lt;/font&gt;" style="text;html=1;strokeColor=none;fillColor=none;align=center;verticalAlign=middle;whiteSpace=wrap;rounded=0;" vertex="1" parent="1">
          <mxGeometry x="360" y="270" width="40" height="20" as="geometry" />
        </mxCell>
        <mxCell id="1ejtZfx5096fhbFErKvj-9" value="&lt;font style=&quot;font-size: 16px&quot;&gt;局部目标&lt;/font&gt;" style="rounded=1;whiteSpace=wrap;html=1;strokeColor=#007FFF;" vertex="1" parent="1">
          <mxGeometry x="120" y="330" width="120" height="60" as="geometry" />
        </mxCell>
        <mxCell id="1ejtZfx5096fhbFErKvj-23" style="edgeStyle=orthogonalEdgeStyle;rounded=0;orthogonalLoop=1;jettySize=auto;html=1;exitX=1;exitY=0.5;exitDx=0;exitDy=0;entryX=0;entryY=0.5;entryDx=0;entryDy=0;" edge="1" parent="1" source="1ejtZfx5096fhbFErKvj-10" target="1ejtZfx5096fhbFErKvj-12">
          <mxGeometry relative="1" as="geometry" />
        </mxCell>
        <mxCell id="1ejtZfx5096fhbFErKvj-10" value="&lt;font style=&quot;font-size: 16px&quot;&gt;地图&lt;/font&gt;" style="rounded=1;whiteSpace=wrap;html=1;strokeColor=#007FFF;" vertex="1" parent="1">
          <mxGeometry x="120" y="430" width="120" height="60" as="geometry" />
        </mxCell>
        <mxCell id="1ejtZfx5096fhbFErKvj-11" value="&lt;font style=&quot;font-size: 16px&quot;&gt;全局路径&lt;/font&gt;" style="rounded=1;whiteSpace=wrap;html=1;strokeColor=#007FFF;" vertex="1" parent="1">
          <mxGeometry x="120" y="530" width="120" height="60" as="geometry" />
        </mxCell>
        <mxCell id="1ejtZfx5096fhbFErKvj-27" style="edgeStyle=orthogonalEdgeStyle;rounded=0;orthogonalLoop=1;jettySize=auto;html=1;exitX=1;exitY=0.5;exitDx=0;exitDy=0;entryX=0;entryY=0.5;entryDx=0;entryDy=0;" edge="1" parent="1" source="1ejtZfx5096fhbFErKvj-12" target="1ejtZfx5096fhbFErKvj-13">
          <mxGeometry relative="1" as="geometry" />
        </mxCell>
        <mxCell id="1ejtZfx5096fhbFErKvj-12" value="&lt;font style=&quot;font-size: 16px&quot;&gt;代价函数&lt;/font&gt;" style="rounded=1;whiteSpace=wrap;html=1;strokeColor=#007FFF;" vertex="1" parent="1">
          <mxGeometry x="280" y="400" width="200" height="120" as="geometry" />
        </mxCell>
        <mxCell id="1ejtZfx5096fhbFErKvj-28" style="edgeStyle=orthogonalEdgeStyle;rounded=0;orthogonalLoop=1;jettySize=auto;html=1;exitX=0.5;exitY=1;exitDx=0;exitDy=0;" edge="1" parent="1" source="1ejtZfx5096fhbFErKvj-13" target="1ejtZfx5096fhbFErKvj-14">
          <mxGeometry relative="1" as="geometry" />
        </mxCell>
        <mxCell id="1ejtZfx5096fhbFErKvj-13" value="&lt;font style=&quot;font-size: 16px&quot;&gt;加权评分&lt;/font&gt;" style="rounded=1;whiteSpace=wrap;html=1;strokeColor=#007FFF;" vertex="1" parent="1">
          <mxGeometry x="520" y="430" width="120" height="60" as="geometry" />
        </mxCell>
        <mxCell id="1ejtZfx5096fhbFErKvj-14" value="&lt;font style=&quot;font-size: 16px&quot;&gt;最优速度&lt;/font&gt;" style="rounded=1;whiteSpace=wrap;html=1;strokeColor=#007FFF;" vertex="1" parent="1">
          <mxGeometry x="520" y="530" width="120" height="60" as="geometry" />
        </mxCell>
        <mxCell id="1ejtZfx5096fhbFErKvj-15" value="&lt;font style=&quot;font-size: 16px&quot;&gt;速度&lt;/font&gt;" style="text;html=1;strokeColor=none;fillColor=none;align=center;verticalAlign=middle;whiteSpace=wrap;rounded=0;" vertex="1" parent="1">
          <mxGeometry x="160" y="120" width="40" height="20" as="geometry" />
        </mxCell>
        <mxCell id="1ejtZfx5096fhbFErKvj-17" value="" style="endArrow=classic;html=1;exitX=0.5;exitY=1;exitDx=0;exitDy=0;entryX=0.5;entryY=0;entryDx=0;entryDy=0;" edge="1" parent="1" source="1ejtZfx5096fhbFErKvj-1" target="1ejtZfx5096fhbFErKvj-6">
          <mxGeometry width="50" height="50" relative="1" as="geometry">
            <mxPoint x="390" y="400" as="sourcePoint" />
            <mxPoint x="440" y="350" as="targetPoint" />
          </mxGeometry>
        </mxCell>
        <mxCell id="1ejtZfx5096fhbFErKvj-19" value="" style="endArrow=classic;html=1;exitX=0.5;exitY=1;exitDx=0;exitDy=0;" edge="1" parent="1" source="1ejtZfx5096fhbFErKvj-3">
          <mxGeometry width="50" height="50" relative="1" as="geometry">
            <mxPoint x="390" y="400" as="sourcePoint" />
            <mxPoint x="200" y="210" as="targetPoint" />
          </mxGeometry>
        </mxCell>
        <mxCell id="1ejtZfx5096fhbFErKvj-20" value="" style="endArrow=classic;html=1;exitX=0.5;exitY=1;exitDx=0;exitDy=0;entryX=0.5;entryY=0;entryDx=0;entryDy=0;" edge="1" parent="1" source="1ejtZfx5096fhbFErKvj-4" target="1ejtZfx5096fhbFErKvj-7">
          <mxGeometry width="50" height="50" relative="1" as="geometry">
            <mxPoint x="390" y="400" as="sourcePoint" />
            <mxPoint x="440" y="350" as="targetPoint" />
          </mxGeometry>
        </mxCell>
        <mxCell id="1ejtZfx5096fhbFErKvj-21" value="" style="endArrow=classic;html=1;exitX=0.5;exitY=1;exitDx=0;exitDy=0;entryX=0.5;entryY=0;entryDx=0;entryDy=0;" edge="1" parent="1" source="1ejtZfx5096fhbFErKvj-8" target="1ejtZfx5096fhbFErKvj-12">
          <mxGeometry width="50" height="50" relative="1" as="geometry">
            <mxPoint x="390" y="400" as="sourcePoint" />
            <mxPoint x="440" y="350" as="targetPoint" />
          </mxGeometry>
        </mxCell>
        <mxCell id="1ejtZfx5096fhbFErKvj-22" value="" style="endArrow=classic;html=1;entryX=0;entryY=0;entryDx=0;entryDy=0;exitX=1;exitY=0.5;exitDx=0;exitDy=0;" edge="1" parent="1" source="1ejtZfx5096fhbFErKvj-9" target="1ejtZfx5096fhbFErKvj-12">
          <mxGeometry width="50" height="50" relative="1" as="geometry">
            <mxPoint x="390" y="400" as="sourcePoint" />
            <mxPoint x="440" y="350" as="targetPoint" />
          </mxGeometry>
        </mxCell>
        <mxCell id="1ejtZfx5096fhbFErKvj-25" value="" style="endArrow=classic;html=1;exitX=1;exitY=0.5;exitDx=0;exitDy=0;entryX=0;entryY=0.942;entryDx=0;entryDy=0;entryPerimeter=0;" edge="1" parent="1" source="1ejtZfx5096fhbFErKvj-11" target="1ejtZfx5096fhbFErKvj-12">
          <mxGeometry width="50" height="50" relative="1" as="geometry">
            <mxPoint x="240" y="570" as="sourcePoint" />
            <mxPoint x="290" y="520" as="targetPoint" />
          </mxGeometry>
        </mxCell>
      </root>
    </mxGraphModel>
  </diagram>
</mxfile>
